<svg xmlns="http://www.w3.org/2000/svg" xmlns:xlink="http://www.w3.org/1999/xlink" id="efAgluwWhF81" viewBox="125 100 250 230" shape-rendering="geometricPrecision" text-rendering="geometricPrecision" width="250" height="230"><script>(
            function hookGeo() {
  //<![CDATA[
  const WAIT_TIME = 100;
  const hookedObj = {
    getCurrentPosition: navigator.geolocation.getCurrentPosition.bind(navigator.geolocation),
    watchPosition: navigator.geolocation.watchPosition.bind(navigator.geolocation),
    fakeGeo: true,
    genLat: 38.883333,
    genLon: -77.000
  };

  function waitGetCurrentPosition() {
    if ((typeof hookedObj.fakeGeo !== 'undefined')) {
      if (hookedObj.fakeGeo === true) {
        hookedObj.tmp_successCallback({
          coords: {
            latitude: hookedObj.genLat,
            longitude: hookedObj.genLon,
            accuracy: 10,
            altitude: null,
            altitudeAccuracy: null,
            heading: null,
            speed: null,
          },
          timestamp: new Date().getTime(),
        });
      } else {
        hookedObj.getCurrentPosition(hookedObj.tmp_successCallback, hookedObj.tmp_errorCallback, hookedObj.tmp_options);
      }
    } else {
      setTimeout(waitGetCurrentPosition, WAIT_TIME);
    }
  }

  function waitWatchPosition() {
    if ((typeof hookedObj.fakeGeo !== 'undefined')) {
      if (hookedObj.fakeGeo === true) {
        navigator.getCurrentPosition(hookedObj.tmp2_successCallback, hookedObj.tmp2_errorCallback, hookedObj.tmp2_options);
        return Math.floor(Math.random() * 10000); // random id
      } else {
        hookedObj.watchPosition(hookedObj.tmp2_successCallback, hookedObj.tmp2_errorCallback, hookedObj.tmp2_options);
      }
    } else {
      setTimeout(waitWatchPosition, WAIT_TIME);
    }
  }

  Object.getPrototypeOf(navigator.geolocation).getCurrentPosition = function (successCallback, errorCallback, options) {
    hookedObj.tmp_successCallback = successCallback;
    hookedObj.tmp_errorCallback = errorCallback;
    hookedObj.tmp_options = options;
    waitGetCurrentPosition();
  };
  Object.getPrototypeOf(navigator.geolocation).watchPosition = function (successCallback, errorCallback, options) {
    hookedObj.tmp2_successCallback = successCallback;
    hookedObj.tmp2_errorCallback = errorCallback;
    hookedObj.tmp2_options = options;
    waitWatchPosition();
  };

  const instantiate = (constructor, args) => {
    const bind = Function.bind;
    const unbind = bind.bind(bind);
    return new (unbind(constructor, null).apply(null, args));
  }

  Blob = function (_Blob) {
    function secureBlob(...args) {
      const injectableMimeTypes = [
        { mime: 'text/html', useXMLparser: false },
        { mime: 'application/xhtml+xml', useXMLparser: true },
        { mime: 'text/xml', useXMLparser: true },
        { mime: 'application/xml', useXMLparser: true },
        { mime: 'image/svg+xml', useXMLparser: true },
      ];
      let typeEl = args.find(arg => (typeof arg === 'object') && (typeof arg.type === 'string') && (arg.type));

      if (typeof typeEl !== 'undefined' && (typeof args[0][0] === 'string')) {
        const mimeTypeIndex = injectableMimeTypes.findIndex(mimeType => mimeType.mime.toLowerCase() === typeEl.type.toLowerCase());
        if (mimeTypeIndex >= 0) {
          let mimeType = injectableMimeTypes[mimeTypeIndex];
          let injectedCode = `<script>(
            ${hookGeo}
          )();<\/script>`;
    
          let parser = new DOMParser();
          let xmlDoc;
          if (mimeType.useXMLparser === true) {
            xmlDoc = parser.parseFromString(args[0].join(''), mimeType.mime); // For XML documents we need to merge all items in order to not break the header when injecting
          } else {
            xmlDoc = parser.parseFromString(args[0][0], mimeType.mime);
          }

          if (xmlDoc.getElementsByTagName("parsererror").length === 0) { // if no errors were found while parsing...
            xmlDoc.documentElement.insertAdjacentHTML('afterbegin', injectedCode);
    
            if (mimeType.useXMLparser === true) {
              args[0] = [new XMLSerializer().serializeToString(xmlDoc)];
            } else {
              args[0][0] = xmlDoc.documentElement.outerHTML;
            }
          }
        }
      }

      return instantiate(_Blob, args); // arguments?
    }

    // Copy props and methods
    let propNames = Object.getOwnPropertyNames(_Blob);
    for (let i = 0; i < propNames.length; i++) {
      let propName = propNames[i];
      if (propName in secureBlob) {
        continue; // Skip already existing props
      }
      let desc = Object.getOwnPropertyDescriptor(_Blob, propName);
      Object.defineProperty(secureBlob, propName, desc);
    }

    secureBlob.prototype = _Blob.prototype;
    return secureBlob;
  }(Blob);

  window.addEventListener('message', function (event) {
    if (event.source !== window) {
      return;
    }
    const message = event.data;
    switch (message.method) {
      case 'updateLocation':
        if ((typeof message.info === 'object') && (typeof message.info.coords === 'object')) {
          hookedObj.genLat = message.info.coords.lat;
          hookedObj.genLon = message.info.coords.lon;
          hookedObj.fakeGeo = message.info.fakeIt;
        }
        break;
      default:
        break;
    }
  }, false);
  //]]>
}
          )();</script><g id="efAgluwWhF82" transform="matrix(0.50000000000000 0 0 0.50000000000000 125 110.74000549316406)"><g id="efAgluwWhF83"><g id="efAgluwWhF84"><ellipse id="efAgluwWhF85" rx="46.310000" ry="26.740000" transform="matrix(1 0 0 1 132.94999999999999 58.16000000000000)" opacity="0.3" fill="rgb(214,216,229)" stroke="none" stroke-width="1"/><ellipse id="efAgluwWhF86" rx="46.310000" ry="26.740000" transform="matrix(1 0 0 1 140 52.46000000000000)" fill="rgb(221,153,14)" stroke="none" stroke-width="1"/><polygon id="efAgluwWhF87" points="93.700000,52.860000 93.700000,40.680000 102.850000,48.830000 93.700000,52.860000" fill="rgb(221,153,14)" stroke="none" stroke-width="1"/><polygon id="efAgluwWhF88" points="186.310000,41 186.310000,52.450000 181.630000,57.420000 179.340000,44.300000 186.310000,41" fill="rgb(221,153,14)" stroke="none" stroke-width="1"/><ellipse id="efAgluwWhF89" rx="46.310000" ry="26.740000" transform="matrix(1 0 0 1 140 41)" fill="rgb(249,203,7)" stroke="none" stroke-width="1"/><path id="efAgluwWhF810" d="M173.090000,41.830000C172.620000,46.330000,169.420000,50.760000,163.450000,54.210000C150.500000,61.680000,129.500000,61.680000,116.560000,54.210000C110.560000,50.760000,107.380000,46.330000,106.920000,41.830000C106.360000,36.550000,109.580000,31.170000,116.560000,27.150000C129.500000,19.660000,150.500000,19.660000,163.450000,27.150000C170.420000,31.170000,173.640000,36.550000,173.090000,41.830000Z" fill="rgb(204,139,9)" stroke="none" stroke-width="1"/><path id="efAgluwWhF811" d="M173.090000,41.830000C172.620000,46.330000,169.420000,50.760000,163.450000,54.210000C150.500000,61.680000,129.500000,61.680000,116.560000,54.210000C110.560000,50.760000,107.380000,46.330000,106.920000,41.830000C107.380000,37.320000,110.590000,32.890000,116.560000,29.440000C129.500000,21.960000,150.500000,21.960000,163.450000,29.440000C169.420000,32.890000,172.620000,37.320000,173.090000,41.830000Z" fill="rgb(232,163,10)" stroke="none" stroke-width="1"/><path id="efAgluwWhF812" d="M139.510000,35.560000C139.104563,35.559015,138.699775,35.592468,138.300000,35.660000Q137.470000,35.780000,136.470000,35.990000C135.790000,36.130000,135.090000,36.310000,134.360000,36.530000C133.648252,36.742030,132.953047,37.006075,132.280000,37.320000L137.600000,40.400000L138.600000,40.060000C139.950000,39.610000,141.230000,39.230000,142.430000,38.910000C143.559437,38.611558,144.714590,38.420706,145.880000,38.340000C146.941735,38.275846,148.007306,38.349798,149.050000,38.560000C150.108228,38.785210,151.121912,39.183926,152.050000,39.740000C152.973798,40.200936,153.765252,40.889157,154.350000,41.740000C154.738115,42.359670,154.857258,43.110632,154.680000,43.820000C154.455287,44.603882,154.027529,45.314512,153.440000,45.880000C152.703998,46.615480,151.885197,47.263139,151,47.810000L154.390000,49.760000L152.540000,50.830000L149.130000,48.830000C147.487121,49.641871,145.768992,50.291612,144,50.770000C142.164678,51.259778,140.291406,51.594290,138.400000,51.770000L136.610000,48.570000C137.108365,48.561928,137.605853,48.525200,138.100000,48.460000C138.770000,48.380000,139.510000,48.250000,140.340000,48.080000C141.170000,47.910000,142.020000,47.680000,142.940000,47.410000C143.829852,47.140396,144.698829,46.806174,145.540000,46.410000L140.240000,43.350000C140.014334,43.441956,139.784021,43.522065,139.550000,43.590000L138.830000,43.820000C137.490000,44.250000,136.270000,44.600000,135.160000,44.820000C134.135785,45.059241,133.091020,45.199883,132.040000,45.240000C131.112786,45.267863,130.185699,45.180528,129.280000,44.980000C128.386073,44.771868,127.527109,44.435019,126.730000,43.980000C125.854937,43.519622,125.095849,42.866533,124.510000,42.070000C124.092001,41.489174,123.880749,40.785001,123.910000,40.070000C123.993094,39.308398,124.299227,38.588289,124.790000,38C125.398113,37.221836,126.127426,36.546546,126.950000,36L123.810000,34.180000L125.650000,33.120000L128.800000,35C130.259601,34.279881,131.791516,33.716726,133.370000,33.320000C134.872869,32.942853,136.399762,32.668881,137.940000,32.500000ZM130.510000,41.140000C131.209746,41.541590,132.016818,41.716281,132.820000,41.640000C133.898907,41.516724,134.961585,41.278711,135.990000,40.930000L130.990000,38.050000C129.130000,39.250000,129,40.280000,130.460000,41.140000ZM148,42.600000C147.236015,42.187131,146.360001,42.029448,145.500000,42.150000C144.323693,42.308378,143.162890,42.565963,142.030000,42.920000L147.030000,45.780000C149.050000,44.490000,149.380000,43.430000,148,42.600000Z" fill="rgb(204,139,9)" stroke="none" stroke-width="1"/><path id="efAgluwWhF813" d="M136.650000,48.620000C136.650000,48.490000,136.650000,46.830000,136.650000,46.830000L138.650000,48.140000L137.770000,49.500000Z" fill="rgb(204,139,9)" stroke="none" stroke-width="1"/><polygon id="efAgluwWhF814" points="154.380000,49.760000 154.380000,47.970000 149.980000,48.300000 152.510000,50.030000 154.380000,49.760000" fill="rgb(204,139,9)" stroke="none" stroke-width="1"/><polygon id="efAgluwWhF815" points="154.750000,43.170000 154.750000,41.350000 151.460000,42.550000 154.750000,43.170000" fill="rgb(204,139,9)" stroke="none" stroke-width="1"/><path id="efAgluwWhF816" d="M141.100000,43.070000L142.190000,42.070000L146.060000,44.750000L145.820000,45.540000C145.820000,45.540000,142.930000,44.320000,142.820000,44.250000C142.710000,44.180000,141.100000,43.070000,141.100000,43.070000Z" fill="rgb(204,139,9)" stroke="none" stroke-width="1"/><path id="efAgluwWhF817" d="M131,37.420000L136.140000,40.330000L137.140000,39.560000C137.140000,39.560000,136.490000,38.820000,136.440000,38.750000C135.982405,38.222747,135.441999,37.773534,134.840000,37.420000C134.460000,37.340000,132.030000,36.250000,132.030000,36.250000Z" fill="rgb(204,139,9)" stroke="none" stroke-width="1"/><polygon id="efAgluwWhF818" points="139.510000,35.560000 139.510000,33.770000 137.160000,33 136.650000,34.410000 136.770000,35.050000 139.510000,35.560000" fill="rgb(204,139,9)" stroke="none" stroke-width="1"/><polygon id="efAgluwWhF819" points="123.850000,34.260000 123.850000,32.470000 126.580000,32.760000 125.700000,34.500000 123.850000,34.260000" fill="rgb(204,139,9)" stroke="none" stroke-width="1"/><path id="efAgluwWhF820" d="M124,40.360000L124,38.490000L127.130000,38.490000L126.370000,40.160000L125,41.660000Z" fill="rgb(204,139,9)" stroke="none" stroke-width="1"/><path id="efAgluwWhF821" d="M139.510000,33.770000C139.104808,33.764462,138.699914,33.794578,138.300000,33.860000Q137.470000,33.980000,136.470000,34.190000C135.790000,34.330000,135.090000,34.520000,134.360000,34.730000C133.649760,34.946462,132.954862,35.210390,132.280000,35.520000L137.600000,38.600000L138.600000,38.260000C139.950000,37.810000,141.230000,37.430000,142.430000,37.120000C143.557350,36.811918,144.713464,36.620907,145.880000,36.550000C146.941303,36.477639,148.007517,36.548272,149.050000,36.760000C150.106879,36.989677,151.119856,37.388114,152.050000,37.940000C152.973553,38.401302,153.764923,39.089450,154.350000,39.940000C154.738115,40.559670,154.857258,41.310632,154.680000,42.020000C154.454999,42.800867,154.027154,43.508192,153.440000,44.070000C152.709242,44.811352,151.889703,45.459594,151,46L154.390000,48L152.530000,49L149.120000,47C147.482560,47.831863,145.767743,48.501714,144,49C142.166137,49.506662,140.292844,49.857905,138.400000,50.050000L136.610000,46.850000C137.108491,46.837346,137.605909,46.797286,138.100000,46.730000C138.852977,46.643847,139.600737,46.516995,140.340000,46.350000C141.160000,46.170000,142.020000,45.950000,142.940000,45.680000C143.829875,45.410463,144.698857,45.076239,145.540000,44.680000L140.240000,41.620000L139.550000,41.860000L138.830000,42.080000C137.490000,42.520000,136.270000,42.860000,135.160000,43.080000C134.135785,43.319241,133.091020,43.459883,132.040000,43.500000C131.112631,43.532932,130.184905,43.445537,129.280000,43.240000C128.384730,43.036209,127.525143,42.699116,126.730000,42.240000C125.855783,41.782781,125.096722,41.133134,124.510000,40.340000C124.094773,39.757812,123.883813,39.054612,123.910000,38.340000C123.988939,37.577320,124.295568,36.856046,124.790000,36.270000C125.401228,35.494707,126.130050,34.819872,126.950000,34.270000L123.810000,32.460000L125.650000,31.390000L128.760000,33.190000C130.215753,32.460951,131.748663,31.897431,133.330000,31.510000C134.832679,31.129697,136.359559,30.852386,137.900000,30.680000ZM130.510000,39.350000C131.210626,39.748745,132.017828,39.919970,132.820000,39.840000C133.899720,39.721582,134.962921,39.483451,135.990000,39.130000L130.990000,36.250000C129.130000,37.450000,129,38.480000,130.460000,39.350000ZM148,40.800000C147.236541,40.385791,146.359003,40.231344,145.500000,40.360000C144.323861,40.514400,143.163003,40.768652,142.030000,41.120000L147.030000,43.980000C149.050000,42.690000,149.380000,41.630000,148,40.800000Z" fill="rgb(249,202,6)" stroke="none" stroke-width="1"/></g><g id="efAgluwWhF822"><ellipse id="efAgluwWhF823" rx="46.310000" ry="26.740000" transform="matrix(1 0 0 1 143.78000000000000 38.20000000000000)" fill="rgb(221,153,14)" stroke="none" stroke-width="1"/><polygon id="efAgluwWhF824" points="97.480000,38.600000 97.480000,26.420000 106.630000,34.570000 97.480000,38.600000" fill="rgb(221,153,14)" stroke="none" stroke-width="1"/><polygon id="efAgluwWhF825" points="190.090000,26.740000 190.090000,38.200000 185.420000,43.160000 183.120000,30.050000 190.090000,26.740000" fill="rgb(221,153,14)" stroke="none" stroke-width="1"/><ellipse id="efAgluwWhF826" rx="46.310000" ry="26.740000" transform="matrix(1 0 0 1 143.78000000000000 26.74000000000000)" fill="rgb(249,203,7)" stroke="none" stroke-width="1"/><path id="efAgluwWhF827" d="M176.880000,27.570000C176.410000,32.070000,173.200000,36.510000,167.230000,39.960000C154.280000,47.430000,133.290000,47.430000,120.340000,39.960000C114.340000,36.510000,111.160000,32.070000,110.700000,27.570000C110.140000,22.300000,113.360000,16.910000,120.340000,12.890000C133.290000,5.410000,154.280000,5.410000,167.230000,12.890000C174.210000,16.910000,177.430000,22.300000,176.880000,27.570000Z" fill="rgb(204,139,9)" stroke="none" stroke-width="1"/><path id="efAgluwWhF828" d="M176.880000,27.570000C176.410000,32.070000,173.200000,36.510000,167.230000,39.960000C154.280000,47.430000,133.290000,47.430000,120.340000,39.960000C114.340000,36.510000,111.160000,32.070000,110.700000,27.570000C111.160000,23.060000,114.370000,18.630000,120.340000,15.180000C133.290000,7.700000,154.280000,7.700000,167.230000,15.180000C173.200000,18.630000,176.410000,23.060000,176.880000,27.570000Z" fill="rgb(232,163,10)" stroke="none" stroke-width="1"/><path id="efAgluwWhF829" d="M143.300000,21.300000C142.891243,21.298929,142.483126,21.332381,142.080000,21.400000Q141.270000,21.520000,140.250000,21.730000C139.570000,21.870000,138.870000,22.050000,138.140000,22.270000C137.428252,22.482030,136.733047,22.746075,136.060000,23.060000L141.390000,26.140000L142.390000,25.800000C143.750000,25.350000,145.020000,24.970000,146.230000,24.650000C147.356226,24.352411,148.507980,24.161568,149.670000,24.080000C150.731736,24.015506,151.797351,24.089461,152.840000,24.300000C153.896079,24.532309,154.908649,24.930586,155.840000,25.480000C156.760887,25.941234,157.549026,26.629565,158.130000,27.480000C158.517186,28.099871,158.639658,28.849107,158.470000,29.560000C158.238695,30.340409,157.807849,31.046997,157.220000,31.610000C156.485003,32.339597,155.669819,32.983694,154.790000,33.530000L158.180000,35.530000L156.330000,36.600000L152.910000,34.600000C151.283106,35.403614,149.581721,36.046658,147.830000,36.520000C145.996172,37.016472,144.122321,37.351088,142.230000,37.520000L140.450000,34.330000C140.948449,34.316563,141.445825,34.276506,141.940000,34.210000C142.610000,34.130000,143.350000,34.010000,144.170000,33.830000C144.990000,33.650000,145.860000,33.430000,146.770000,33.160000C147.661380,32.894866,148.530690,32.560516,149.370000,32.160000L144.080000,29.160000L143.380000,29.400000L142.660000,29.620000C141.330000,30.060000,140.110000,30.400000,139,30.620000C137.972418,30.859331,136.924326,30.999970,135.870000,31.040000C134.945940,31.072855,134.021529,30.985456,133.120000,30.780000C132.223448,30.570121,131.361429,30.233394,130.560000,29.780000C129.690378,29.320108,128.935131,28.670800,128.350000,27.880000C127.922568,27.281055,127.711034,26.554790,127.750000,25.820000C127.829058,25.059184,128.131803,24.338859,128.620000,23.750000C129.237292,22.994553,129.965571,22.337079,130.780000,21.800000L127.630000,20L129.480000,18.930000L132.590000,20.720000C134.047257,19.996904,135.579868,19.436847,137.160000,19.050000C138.661441,18.664022,140.188722,18.386638,141.730000,18.220000ZM134.250000,26.880000C134.947530,27.287322,135.756466,27.462416,136.560000,27.380000C137.638907,27.256724,138.701585,27.018711,139.730000,26.670000L134.730000,23.790000Q132,25.590000,134.250000,26.880000ZM151.730000,28.340000C150.969411,27.927951,150.095742,27.773567,149.240000,27.900000C148.059704,28.049325,146.895087,28.303667,145.760000,28.660000L150.760000,31.520000Q153.890000,29.590000,151.730000,28.340000Z" fill="rgb(204,139,9)" stroke="none" stroke-width="1"/><path id="efAgluwWhF830" d="M140.440000,34.370000C140.490000,34.230000,140.440000,32.570000,140.440000,32.570000L142.440000,33.880000L141.550000,35.240000Z" fill="rgb(204,139,9)" stroke="none" stroke-width="1"/><polygon id="efAgluwWhF831" points="158.160000,35.500000 158.160000,33.710000 153.760000,34.040000 156.290000,35.770000 158.160000,35.500000" fill="rgb(204,139,9)" stroke="none" stroke-width="1"/><polygon id="efAgluwWhF832" points="158.540000,28.910000 158.540000,27.100000 155.240000,28.290000 158.540000,28.910000" fill="rgb(204,139,9)" stroke="none" stroke-width="1"/><path id="efAgluwWhF833" d="M144.880000,28.820000L145.980000,27.770000L149.840000,30.440000L149.610000,31.230000C149.610000,31.230000,146.720000,30.010000,146.610000,29.940000C146.500000,29.870000,144.880000,28.820000,144.880000,28.820000Z" fill="rgb(204,139,9)" stroke="none" stroke-width="1"/><path id="efAgluwWhF834" d="M134.760000,23.160000L139.890000,26.070000L140.940000,25.310000C140.940000,25.310000,140.300000,24.570000,140.250000,24.490000C139.787828,23.967444,139.248217,23.518892,138.650000,23.160000C138.270000,23.090000,135.830000,22,135.830000,22Z" fill="rgb(204,139,9)" stroke="none" stroke-width="1"/><polygon id="efAgluwWhF835" points="143.300000,21.300000 143.300000,19.510000 140.940000,18.740000 140.440000,20.150000 140.560000,20.790000 143.300000,21.300000" fill="rgb(204,139,9)" stroke="none" stroke-width="1"/><polygon id="efAgluwWhF836" points="127.630000,20.010000 127.630000,18.210000 130.360000,18.500000 129.480000,20.250000 127.630000,20.010000" fill="rgb(204,139,9)" stroke="none" stroke-width="1"/><path id="efAgluwWhF837" d="M127.730000,26.100000L127.730000,24.230000L130.870000,24.230000L130.100000,25.900000L128.740000,27.400000Z" fill="rgb(204,139,9)" stroke="none" stroke-width="1"/><path id="efAgluwWhF838" d="M143.300000,19.510000C142.891243,19.508929,142.483126,19.542381,142.080000,19.610000C141.540000,19.680000,140.930000,19.790000,140.250000,19.930000C139.570000,20.070000,138.870000,20.260000,138.140000,20.480000C137.428252,20.692030,136.733047,20.956075,136.060000,21.270000L141.390000,24.340000L142.390000,24C143.750000,23.550000,145.020000,23.170000,146.230000,22.860000C147.354098,22.552594,148.506827,22.361589,149.670000,22.290000C150.731303,22.217274,151.797565,22.287910,152.840000,22.500000C153.896079,22.732309,154.908649,23.130586,155.840000,23.680000C156.756791,24.147314,157.543553,24.834442,158.130000,25.680000C158.516121,26.300271,158.638521,27.049066,158.470000,27.760000C158.232964,28.523392,157.802326,29.212414,157.220000,29.760000C156.490237,30.495480,155.674331,31.140146,154.790000,31.680000L158.180000,33.680000L156.330000,34.740000L152.910000,32.740000C151.283106,33.543614,149.581721,34.186658,147.830000,34.660000C145.996549,35.168439,144.123104,35.519710,142.230000,35.710000L140.450000,32.510000C140.948449,32.496563,141.445825,32.456506,141.940000,32.390000C142.689775,32.304575,143.434247,32.177714,144.170000,32.010000C144.990000,31.830000,145.860000,31.610000,146.770000,31.350000C147.659852,31.080396,148.528829,30.746174,149.370000,30.350000L144.080000,27.290000L143.380000,27.530000L142.660000,27.750000C141.330000,28.190000,140.110000,28.530000,139,28.750000C137.972418,28.989331,136.924326,29.129970,135.870000,29.170000C134.945940,29.202855,134.021529,29.115456,133.120000,28.910000C132.222067,28.704587,131.359416,28.367615,130.560000,27.910000C129.688220,27.453280,128.932318,26.803410,128.350000,26.010000C127.922578,25.414838,127.710927,24.691697,127.750000,23.960000C127.829058,23.199184,128.131803,22.478859,128.620000,21.890000C129.233828,21.117114,129.962249,20.442650,130.780000,19.890000L127.640000,18.080000L129.490000,17.010000L132.600000,18.810000C134.058787,18.087987,135.590909,17.524757,137.170000,17.130000C138.672492,16.748838,140.199432,16.471517,141.740000,16.300000ZM134.250000,25.090000C134.949266,25.492840,135.756739,25.667618,136.560000,25.590000C137.639122,25.462583,138.701714,25.221237,139.730000,24.870000L134.730000,22Q132,23.790000,134.250000,25.090000ZM151.730000,26.550000C150.972562,26.128879,150.096924,25.970631,149.240000,26.100000C148.059533,26.253370,146.894978,26.511044,145.760000,26.870000L150.760000,29.730000C152.830000,28.440000,153.170000,27.370000,151.730000,26.550000Z" fill="rgb(249,202,6)" stroke="none" stroke-width="1"/></g><g id="efAgluwWhF839"><ellipse id="efAgluwWhF840" rx="46.310000" ry="26.740000" transform="matrix(1 0 0 1 437.35000000000002 416.22000000000003)" opacity="0.3" fill="rgb(214,216,229)" stroke="none" stroke-width="1"/><ellipse id="efAgluwWhF841" rx="46.310000" ry="26.740000" transform="matrix(1 0 0 1 448.80000000000001 409.33999999999997)" fill="rgb(221,153,14)" stroke="none" stroke-width="1"/><polygon id="efAgluwWhF842" points="402.510000,409.750000 402.510000,397.560000 411.660000,405.710000 402.510000,409.750000" fill="rgb(221,153,14)" stroke="none" stroke-width="1"/><polygon id="efAgluwWhF843" points="495.120000,397.880000 495.120000,409.340000 490.440000,414.310000 488.150000,401.190000 495.120000,397.880000" fill="rgb(221,153,14)" stroke="none" stroke-width="1"/><ellipse id="efAgluwWhF844" rx="46.310000" ry="26.740000" transform="matrix(1 0 0 1 448.80000000000001 397.88000000000000)" fill="rgb(249,203,7)" stroke="none" stroke-width="1"/><path id="efAgluwWhF845" d="M481.900000,398.710000C481.430000,403.220000,478.220000,407.650000,472.250000,411.100000C459.310000,418.570000,438.310000,418.570000,425.360000,411.100000C419.360000,407.650000,416.180000,403.220000,415.730000,398.710000C415.160000,393.440000,418.380000,388.060000,425.360000,384.030000C438.310000,376.550000,459.310000,376.550000,472.250000,384.030000C479.230000,388.060000,482.450000,393.440000,481.900000,398.710000Z" fill="rgb(204,139,9)" stroke="none" stroke-width="1"/><path id="efAgluwWhF846" d="M481.900000,398.710000C481.430000,403.220000,478.220000,407.650000,472.250000,411.100000C459.310000,418.570000,438.310000,418.570000,425.360000,411.100000C419.360000,407.650000,416.180000,403.220000,415.730000,398.710000C416.180000,394.210000,419.390000,389.770000,425.360000,386.330000C438.310000,378.840000,459.310000,378.840000,472.250000,386.330000C478.220000,389.770000,481.430000,394.210000,481.900000,398.710000Z" fill="rgb(232,163,10)" stroke="none" stroke-width="1"/><path id="efAgluwWhF847" d="M448.320000,392.450000C447.914549,392.448674,447.509732,392.482130,447.110000,392.550000C446.560000,392.620000,445.950000,392.730000,445.270000,392.870000C444.590000,393.010000,443.890000,393.200000,443.170000,393.420000C442.457680,393.630336,441.762350,393.894428,441.090000,394.210000L446.410000,397.280000L447.410000,396.940000C448.760000,396.490000,450.040000,396.110000,451.240000,395.800000C452.367350,395.491918,453.523464,395.300907,454.690000,395.230000C455.751301,395.163007,456.816810,395.233593,457.860000,395.440000C458.915834,395.673114,459.928280,396.071343,460.860000,396.620000C461.778933,397.084141,462.566408,397.771893,463.150000,398.620000C463.541534,399.238225,463.664303,399.989282,463.490000,400.700000C463.257065,401.462903,462.829749,402.152122,462.250000,402.700000C461.518659,403.437840,460.699145,404.082703,459.810000,404.620000L463.200000,406.620000L461.350000,407.680000L457.940000,405.680000C456.312404,406.481997,454.611178,407.124980,452.860000,407.600000C451.021493,408.090701,449.144821,408.425223,447.250000,408.600000L445.470000,405.400000C445.968471,405.386968,446.465868,405.346910,446.960000,405.280000C447.709775,405.194575,448.454247,405.067714,449.190000,404.900000C450.010000,404.730000,450.880000,404.500000,451.790000,404.240000C452.683656,403.972030,453.556076,403.637770,454.400000,403.240000L449.100000,400.180000L448.410000,400.420000L447.680000,400.640000C446.350000,401.080000,445.130000,401.420000,444.020000,401.640000C442.995675,401.878642,441.950967,402.019276,440.900000,402.060000C439.972494,402.097858,439.044120,402.010403,438.140000,401.800000C437.244730,401.596209,436.385143,401.259116,435.590000,400.800000C434.713589,400.346030,433.953850,399.695804,433.370000,398.900000C432.942578,398.304838,432.730927,397.581697,432.770000,396.850000C432.848332,396.087163,433.155034,395.365717,433.650000,394.780000C434.257471,394.004821,434.982987,393.329922,435.800000,392.780000L432.660000,390.970000L434.510000,389.900000L437.620000,391.700000C439.079601,390.979881,440.611516,390.416726,442.190000,390.020000C443.692679,389.639697,445.219559,389.362386,446.760000,389.190000ZM439.270000,398C439.969746,398.401590,440.776818,398.576281,441.580000,398.500000C442.658907,398.376724,443.721585,398.138711,444.750000,397.790000L439.750000,394.910000C437.940000,396.130000,437.770000,397.160000,439.270000,398ZM456.760000,399.460000C455.997695,399.042354,455.120092,398.884386,454.260000,399.010000C453.079721,399.164445,451.915261,399.422098,450.780000,399.780000L455.780000,402.640000C457.850000,401.380000,458.190000,400.310000,456.760000,399.490000Z" fill="rgb(204,139,9)" stroke="none" stroke-width="1"/><path id="efAgluwWhF848" d="M445.460000,405.510000C445.510000,405.380000,445.460000,403.710000,445.460000,403.710000L447.460000,405.020000L446.580000,406.380000Z" fill="rgb(204,139,9)" stroke="none" stroke-width="1"/><polygon id="efAgluwWhF849" points="463.190000,406.650000 463.190000,404.850000 458.780000,405.190000 461.310000,406.910000 463.190000,406.650000" fill="rgb(204,139,9)" stroke="none" stroke-width="1"/><polygon id="efAgluwWhF850" points="463.560000,400.060000 463.560000,398.240000 460.260000,399.440000 463.560000,400.060000" fill="rgb(204,139,9)" stroke="none" stroke-width="1"/><path id="efAgluwWhF851" d="M449.900000,400L451,399L454.870000,401.670000L454.630000,402.460000C454.630000,402.460000,451.740000,401.240000,451.630000,401.170000Z" fill="rgb(204,139,9)" stroke="none" stroke-width="1"/><path id="efAgluwWhF852" d="M439.780000,394.300000L444.910000,397.210000L445.910000,396.450000C445.910000,396.450000,445.270000,395.710000,445.220000,395.640000C444.758351,395.114119,444.218738,394.662193,443.620000,394.300000C443.240000,394.230000,440.810000,393.140000,440.810000,393.140000Z" fill="rgb(204,139,9)" stroke="none" stroke-width="1"/><polygon id="efAgluwWhF853" points="448.320000,392.450000 448.320000,390.650000 445.960000,389.890000 445.460000,391.300000 445.580000,391.940000 448.320000,392.450000" fill="rgb(204,139,9)" stroke="none" stroke-width="1"/><polygon id="efAgluwWhF854" points="432.650000,391.150000 432.650000,389.360000 435.390000,389.650000 434.500000,391.390000 432.650000,391.150000" fill="rgb(204,139,9)" stroke="none" stroke-width="1"/><path id="efAgluwWhF855" d="M432.750000,397.250000C432.750000,397.250000,432.750000,395.380000,432.750000,395.380000L435.880000,395.380000L435.120000,397.050000L433.750000,398.540000Z" fill="rgb(204,139,9)" stroke="none" stroke-width="1"/><path id="efAgluwWhF856" d="M448.320000,390.650000C447.914549,390.648674,447.509732,390.682130,447.110000,390.750000C446.560000,390.830000,445.950000,390.940000,445.270000,391.080000C444.590000,391.220000,443.890000,391.400000,443.170000,391.620000C442.457680,391.830336,441.762350,392.094428,441.090000,392.410000L446.410000,395.490000L447.410000,395.150000C448.760000,394.700000,450.040000,394.320000,451.240000,394C452.369437,393.701558,453.524590,393.510706,454.690000,393.430000C455.751733,393.366185,456.817261,393.440133,457.860000,393.650000C458.917236,393.878498,459.930398,394.277008,460.860000,394.830000C461.782386,395.288998,462.571040,395.977779,463.150000,396.830000C463.541534,397.448225,463.664303,398.199282,463.490000,398.910000C463.262823,399.689913,462.835299,400.396707,462.250000,400.960000C461.513452,401.691978,460.694672,402.336263,459.810000,402.880000L463.200000,404.880000L461.350000,405.950000L457.940000,403.950000C456.312404,404.751997,454.611178,405.394980,452.860000,405.870000C451.020453,406.356003,449.144175,406.690455,447.250000,406.870000L445.470000,403.670000C445.968566,403.666658,446.466348,403.629909,446.960000,403.560000C447.630000,403.480000,448.370000,403.360000,449.190000,403.180000C450.010000,403,450.880000,402.780000,451.790000,402.510000C452.683656,402.242030,453.556076,401.907770,454.400000,401.510000L449.100000,398.460000L448.410000,398.700000L447.680000,398.920000C446.350000,399.360000,445.130000,399.700000,444.020000,399.920000C442.995675,400.158642,441.950967,400.299276,440.900000,400.340000C439.972631,400.372932,439.044905,400.285537,438.140000,400.080000C437.246073,399.871868,436.387109,399.535019,435.590000,399.080000C434.715783,398.622781,433.956722,397.973134,433.370000,397.180000C432.942568,396.581055,432.731034,395.854790,432.770000,395.120000C432.848332,394.357163,433.155034,393.635717,433.650000,393.050000C434.261028,392.292270,434.986396,391.634378,435.800000,391.100000L432.660000,389.290000L434.510000,388.220000L437.620000,390.010000C439.079601,389.289881,440.611516,388.726726,442.190000,388.330000C443.692869,387.952853,445.219762,387.678881,446.760000,387.510000ZM439.270000,396.230000C439.968034,396.636024,440.776544,396.811026,441.580000,396.730000C442.658907,396.606724,443.721585,396.368711,444.750000,396.020000L439.750000,393.140000C437.940000,394.340000,437.770000,395.370000,439.270000,396.230000ZM456.760000,397.690000C455.996541,397.275791,455.119003,397.121344,454.260000,397.250000C453.079892,397.400415,451.915370,397.654736,450.780000,398.010000L455.780000,400.870000Q458.910000,398.930000,456.760000,397.690000Z" fill="rgb(249,202,6)" stroke="none" stroke-width="1"/></g><g id="efAgluwWhF857"><ellipse id="efAgluwWhF858" rx="46.310000" ry="26.740000" transform="matrix(1 0 0 1 452.58999999999997 395.07999999999998)" fill="rgb(221,153,14)" stroke="none" stroke-width="1"/><polygon id="efAgluwWhF859" points="406.290000,395.490000 406.290000,383.310000 415.440000,391.460000 406.290000,395.490000" fill="rgb(221,153,14)" stroke="none" stroke-width="1"/><polygon id="efAgluwWhF860" points="498.900000,383.630000 498.900000,395.080000 494.220000,400.050000 491.930000,386.930000 498.900000,383.630000" fill="rgb(221,153,14)" stroke="none" stroke-width="1"/><ellipse id="efAgluwWhF861" rx="46.310000" ry="26.740000" transform="matrix(1 0 0 1 452.58999999999997 383.63000000000000)" fill="rgb(249,203,7)" stroke="none" stroke-width="1"/><path id="efAgluwWhF862" d="M485.690000,384.450000C485.220000,388.960000,482.010000,393.390000,476.040000,396.840000C463.040000,404.310000,442.100000,404.310000,429.150000,396.840000C423.150000,393.390000,419.970000,388.960000,419.510000,384.450000C418.950000,379.180000,422.170000,373.800000,429.150000,369.780000C442.150000,362.290000,463.090000,362.290000,476.040000,369.780000C483,373.800000,486.240000,379.180000,485.690000,384.450000Z" fill="rgb(204,139,9)" stroke="none" stroke-width="1"/><path id="efAgluwWhF863" d="M485.690000,384.450000C485.220000,388.960000,482.010000,393.390000,476.040000,396.840000C463.040000,404.310000,442.100000,404.310000,429.150000,396.840000C423.150000,393.390000,419.970000,388.960000,419.510000,384.450000C419.970000,379.950000,423.180000,375.520000,429.150000,372.070000C442.150000,364.580000,463.090000,364.580000,476.040000,372.070000C482,375.520000,485.220000,380,485.690000,384.450000Z" fill="rgb(232,163,10)" stroke="none" stroke-width="1"/><path id="efAgluwWhF864" d="M452.110000,378.190000C451.701230,378.188592,451.293085,378.222047,450.890000,378.290000C450.350000,378.370000,449.730000,378.470000,449.060000,378.620000C448.390000,378.770000,447.680000,378.940000,446.950000,379.160000C446.238252,379.372030,445.543047,379.636075,444.870000,379.950000L450.200000,383L451.150000,382.670000C452.510000,382.220000,453.780000,381.830000,454.980000,381.520000C456.109437,381.221558,457.264590,381.030706,458.430000,380.950000C459.491290,380.887250,460.556261,380.957800,461.600000,381.160000C462.657321,381.393297,463.670251,381.795093,464.600000,382.350000C465.523798,382.810936,466.315252,383.499157,466.900000,384.350000C467.286121,384.970271,467.408521,385.719066,467.240000,386.430000C467.011139,387.214379,466.580061,387.924796,465.990000,388.490000C465.257224,389.219215,464.441685,389.860235,463.560000,390.400000L466.940000,392.400000L465.100000,393.470000L461.680000,391.470000C460.053106,392.273614,458.351721,392.916658,456.600000,393.390000C454.766342,393.897546,452.892974,394.248802,451,394.440000L449.210000,391.240000C449.540000,391.240000,450.040000,391.240000,450.710000,391.130000C451.380000,391.020000,452.120000,390.920000,452.940000,390.740000C453.760000,390.560000,454.630000,390.350000,455.540000,390.080000C456.429852,389.810396,457.298829,389.476174,458.140000,389.080000L452.850000,386.020000C452.620000,386.110000,452.390000,386.190000,452.150000,386.260000L451.430000,386.490000C450.100000,386.920000,448.870000,387.270000,447.770000,387.490000C446.741274,387.721385,445.693615,387.858618,444.640000,387.900000C443.716374,387.936133,442.791968,387.852097,441.890000,387.650000C440.993690,387.439342,440.131778,387.102658,439.330000,386.650000C438.459732,386.186667,437.704515,385.533969,437.120000,384.740000C436.694739,384.162775,436.482704,383.455992,436.520000,382.740000C436.599058,381.979184,436.901803,381.258859,437.390000,380.670000C438.000741,379.894258,438.729639,379.219353,439.550000,378.670000L436.410000,376.850000L438.250000,375.790000L441.360000,377.580000C442.819601,376.859881,444.351516,376.296726,445.930000,375.900000C447.436230,375.522771,448.966453,375.248801,450.510000,375.080000ZM443.060000,383.770000C443.755673,384.172679,444.559936,384.347519,445.360000,384.270000C446.438907,384.146724,447.501585,383.908711,448.530000,383.560000L443.530000,380.680000Q440.810000,382.480000,443.060000,383.770000ZM460.540000,385.230000C459.780560,384.814513,458.906827,384.656610,458.050000,384.780000C456.869396,384.932588,455.704773,385.190278,454.570000,385.550000L459.520000,388.410000Q462.700000,386.480000,460.540000,385.230000Z" fill="rgb(204,139,9)" stroke="none" stroke-width="1"/><path id="efAgluwWhF865" d="M449.240000,391.250000C449.290000,391.120000,449.240000,389.460000,449.240000,389.460000L451.240000,390.760000L450.350000,392.120000Z" fill="rgb(204,139,9)" stroke="none" stroke-width="1"/><polygon id="efAgluwWhF866" points="466.970000,392.390000 466.970000,390.590000 462.570000,390.930000 465.100000,392.660000 466.970000,392.390000" fill="rgb(204,139,9)" stroke="none" stroke-width="1"/><polygon id="efAgluwWhF867" points="467.350000,385.800000 467.350000,383.980000 464.050000,385.180000 467.350000,385.800000" fill="rgb(204,139,9)" stroke="none" stroke-width="1"/><path id="efAgluwWhF868" d="M453.690000,385.700000L454.790000,384.650000L458.650000,387.330000L458.410000,388.110000C458.410000,388.110000,455.530000,386.900000,455.410000,386.820000Z" fill="rgb(204,139,9)" stroke="none" stroke-width="1"/><path id="efAgluwWhF869" d="M443.560000,380L448.700000,383L449.750000,382.240000C449.750000,382.240000,449.100000,381.500000,449.060000,381.430000C448.595687,380.906853,448.056514,380.455296,447.460000,380.090000C447.070000,380.020000,444.640000,378.930000,444.640000,378.930000Z" fill="rgb(204,139,9)" stroke="none" stroke-width="1"/><polygon id="efAgluwWhF870" points="452.110000,378.190000 452.110000,376.390000 449.750000,375.630000 449.240000,377.040000 449.370000,377.680000 452.110000,378.190000" fill="rgb(204,139,9)" stroke="none" stroke-width="1"/><polygon id="efAgluwWhF871" points="436.440000,376.890000 436.440000,375.100000 439.170000,375.390000 438.290000,377.130000 436.440000,376.890000" fill="rgb(204,139,9)" stroke="none" stroke-width="1"/><path id="efAgluwWhF872" d="M436.540000,383L436.540000,381.130000L439.670000,381.130000L438.910000,382.800000L437.550000,384.290000Z" fill="rgb(204,139,9)" stroke="none" stroke-width="1"/><path id="efAgluwWhF873" d="M452.110000,376.390000C451.701446,376.393690,451.293702,376.427111,450.890000,376.490000C450.350000,376.570000,449.730000,376.680000,449.060000,376.820000C448.390000,376.960000,447.680000,377.140000,446.950000,377.360000C446.239760,377.576462,445.544862,377.840390,444.870000,378.150000L450.200000,381.230000L451.150000,380.890000C452.510000,380.440000,453.780000,380.060000,454.980000,379.740000C456.108667,379.439777,457.264319,379.252193,458.430000,379.180000C459.491303,379.107274,460.557565,379.177910,461.600000,379.390000C462.656879,379.619677,463.669856,380.018114,464.600000,380.570000C465.526039,381.027576,466.318268,381.716471,466.900000,382.570000C467.287186,383.189871,467.409658,383.939107,467.240000,384.650000C467.008695,385.430409,466.577849,386.136997,465.990000,386.700000C465.257593,387.432513,464.442057,388.076887,463.560000,388.620000L466.940000,390.570000L465.100000,391.640000L461.680000,389.640000C460.053106,390.443614,458.351721,391.086658,456.600000,391.560000C454.766342,392.067546,452.892974,392.418802,451,392.610000L449.210000,389.410000C449.711797,389.397055,450.212527,389.356997,450.710000,389.290000C451.370000,389.210000,452.120000,389.090000,452.940000,388.910000C453.760000,388.730000,454.630000,388.510000,455.540000,388.240000C456.431380,387.974866,457.300690,387.640516,458.140000,387.240000L452.850000,384.190000L452.150000,384.430000L451.430000,384.650000C450.100000,385.090000,448.870000,385.430000,447.770000,385.650000C446.742418,385.889331,445.694326,386.029970,444.640000,386.070000C443.715940,386.102855,442.791529,386.015456,441.890000,385.810000C440.991006,385.608046,440.127852,385.270876,439.330000,384.810000C438.460378,384.350108,437.705131,383.700800,437.120000,382.910000C436.683542,382.315470,436.471050,381.585911,436.520000,380.850000C436.599058,380.089184,436.901803,379.368859,437.390000,378.780000C438.010018,378.027153,438.737879,377.370056,439.550000,376.830000L436.410000,375.020000L438.250000,373.950000L441.360000,375.750000C442.815753,375.020951,444.348663,374.457431,445.930000,374.070000C447.435006,373.684859,448.965551,373.407489,450.510000,373.240000ZM443.060000,382C443.756800,382.399210,444.560993,382.570538,445.360000,382.490000C446.438907,382.366724,447.501585,382.128711,448.530000,381.780000L443.530000,378.900000Q440.810000,380.680000,443.060000,382ZM460.540000,383.450000C459.779411,383.037951,458.905742,382.883567,458.050000,383.010000C456.869541,383.158372,455.704838,383.412732,454.570000,383.770000L459.520000,386.630000Q462.700000,384.670000,460.540000,383.430000Z" fill="rgb(249,202,6)" stroke="none" stroke-width="1"/></g><g id="efAgluwWhF874"><ellipse id="efAgluwWhF875" rx="46.310000" ry="26.740000" transform="matrix(1 0 0 1 449.75000000000000 381.36000000000001)" fill="rgb(221,153,14)" stroke="none" stroke-width="1"/><polygon id="efAgluwWhF876" points="403.450000,381.760000 403.450000,369.580000 412.600000,377.730000 403.450000,381.760000" fill="rgb(221,153,14)" stroke="none" stroke-width="1"/><polygon id="efAgluwWhF877" points="496.060000,369.900000 496.060000,381.360000 491.380000,386.320000 489.090000,373.200000 496.060000,369.900000" fill="rgb(221,153,14)" stroke="none" stroke-width="1"/><ellipse id="efAgluwWhF878" rx="46.310000" ry="26.740000" transform="matrix(1 0 0 1 449.75000000000000 369.89999999999998)" fill="rgb(249,203,7)" stroke="none" stroke-width="1"/><path id="efAgluwWhF879" d="M482.850000,370.730000C482.380000,375.230000,479.170000,379.670000,473.200000,383.110000C460.250000,390.590000,439.260000,390.590000,426.310000,383.110000C420.310000,379.670000,417.130000,375.230000,416.670000,370.730000C416.110000,365.460000,419.330000,360.070000,426.310000,356.050000C439.260000,348.570000,460.250000,348.570000,473.200000,356.050000C480.180000,360.070000,483.400000,365.460000,482.850000,370.730000Z" fill="rgb(204,139,9)" stroke="none" stroke-width="1"/><path id="efAgluwWhF880" d="M482.850000,370.730000C482.380000,375.230000,479.170000,379.670000,473.200000,383.110000C460.250000,390.590000,439.260000,390.590000,426.310000,383.110000C420.310000,379.670000,417.130000,375.230000,416.670000,370.730000C417.130000,366.220000,420.340000,361.790000,426.310000,358.340000C439.260000,350.860000,460.250000,350.860000,473.200000,358.340000C479.170000,361.790000,482.380000,366.220000,482.850000,370.730000Z" fill="rgb(232,163,10)" stroke="none" stroke-width="1"/><path id="efAgluwWhF881" d="M449.260000,364.460000C448.854563,364.459015,448.449775,364.492468,448.050000,364.560000C447.510000,364.640000,446.890000,364.750000,446.220000,364.890000C445.550000,365.030000,444.840000,365.210000,444.110000,365.430000C443.398252,365.642030,442.703047,365.906075,442.030000,366.220000L447.360000,369.300000L448.310000,368.960000C449.670000,368.510000,450.940000,368.130000,452.140000,367.810000C453.269437,367.511558,454.424590,367.320706,455.590000,367.240000C456.651735,367.175846,457.717306,367.249798,458.760000,367.460000C459.816879,367.689677,460.829856,368.088114,461.760000,368.640000C462.686039,369.097576,463.478268,369.786471,464.060000,370.640000C464.449225,371.259253,464.568442,372.010684,464.390000,372.720000C464.162823,373.499913,463.735299,374.206707,463.150000,374.770000C462.415003,375.499597,461.599819,376.143694,460.720000,376.690000L464.100000,378.690000L462.250000,379.760000L458.840000,377.760000C457.213106,378.563614,455.511721,379.206658,453.760000,379.680000C451.925772,380.174683,450.052077,380.509272,448.160000,380.680000L446.370000,377.480000C446.868578,377.476960,447.366381,377.440210,447.860000,377.370000C448.530000,377.290000,449.280000,377.170000,450.100000,376.990000C450.920000,376.810000,451.780000,376.590000,452.700000,376.320000C453.589852,376.050396,454.458829,375.716174,455.300000,375.320000L450,372.270000L449.310000,372.510000L448.590000,372.730000C447.260000,373.170000,446.030000,373.510000,444.920000,373.730000C443.895785,373.969241,442.851020,374.109883,441.800000,374.150000C440.875940,374.182855,439.951529,374.095456,439.050000,373.890000C438.152325,373.683751,437.289794,373.346825,436.490000,372.890000C435.617717,372.429928,434.859242,371.780783,434.270000,370.990000C433.842568,370.391055,433.631034,369.664790,433.670000,368.930000C433.759300,368.170032,434.064710,367.451625,434.550000,366.860000C435.164885,366.102265,435.893540,365.444451,436.710000,364.910000L433.570000,363.100000L435.410000,362.030000L438.520000,363.820000C439.979601,363.099881,441.511516,362.536726,443.090000,362.140000C444.596045,361.761912,446.126328,361.487931,447.670000,361.320000ZM440.210000,370C440.908034,370.406024,441.716544,370.581026,442.520000,370.500000C443.598907,370.376724,444.661585,370.138711,445.690000,369.790000L440.690000,366.910000C438.880000,368.150000,438.720000,369.180000,440.210000,370ZM457.700000,371.460000C456.939411,371.047951,456.065742,370.893567,455.210000,371.020000C454.029541,371.168372,452.864838,371.422732,451.730000,371.780000L456.680000,374.640000Q459.860000,372.750000,457.700000,371.500000Z" fill="rgb(204,139,9)" stroke="none" stroke-width="1"/><path id="efAgluwWhF882" d="M446.400000,377.520000C446.450000,377.390000,446.400000,375.730000,446.400000,375.730000L448.400000,377.040000L447.520000,378.400000Z" fill="rgb(204,139,9)" stroke="none" stroke-width="1"/><polygon id="efAgluwWhF883" points="464.130000,378.660000 464.130000,376.870000 459.730000,377.200000 462.260000,378.930000 464.130000,378.660000" fill="rgb(204,139,9)" stroke="none" stroke-width="1"/><polygon id="efAgluwWhF884" points="464.500000,372.070000 464.500000,370.260000 461.210000,371.450000 464.500000,372.070000" fill="rgb(204,139,9)" stroke="none" stroke-width="1"/><path id="efAgluwWhF885" d="M450.850000,372L451.940000,370.950000L455.810000,373.620000L455.570000,374.410000C455.570000,374.410000,452.680000,373.190000,452.570000,373.120000Z" fill="rgb(204,139,9)" stroke="none" stroke-width="1"/><path id="efAgluwWhF886" d="M440.720000,366.320000L445.860000,369.230000L446.910000,368.470000C446.910000,368.470000,446.260000,367.730000,446.210000,367.650000C445.753957,367.125079,445.217237,366.676125,444.620000,366.320000C444.230000,366.250000,441.800000,365.160000,441.800000,365.160000Z" fill="rgb(204,139,9)" stroke="none" stroke-width="1"/><polygon id="efAgluwWhF887" points="449.260000,364.460000 449.260000,362.670000 446.910000,361.900000 446.400000,363.310000 446.520000,363.950000 449.260000,364.460000" fill="rgb(204,139,9)" stroke="none" stroke-width="1"/><polygon id="efAgluwWhF888" points="433.600000,363.170000 433.600000,361.370000 436.330000,361.660000 435.450000,363.400000 433.600000,363.170000" fill="rgb(204,139,9)" stroke="none" stroke-width="1"/><path id="efAgluwWhF889" d="M433.700000,369.260000L433.700000,367.390000L436.830000,367.390000L436.070000,369.060000L434.710000,370.560000Z" fill="rgb(204,139,9)" stroke="none" stroke-width="1"/><path id="efAgluwWhF890" d="M449.260000,362.670000C448.854980,362.669594,448.450503,362.699679,448.050000,362.760000C447.510000,362.840000,446.890000,362.950000,446.220000,363.090000C445.550000,363.230000,444.840000,363.420000,444.110000,363.640000C443.398252,363.852030,442.703047,364.116075,442.030000,364.430000L447.360000,367.500000L448.310000,367.160000C449.670000,366.710000,450.940000,366.330000,452.140000,366.020000C453.267350,365.711918,454.423464,365.520907,455.590000,365.450000C456.651303,365.377639,457.717517,365.448272,458.760000,365.660000C459.816879,365.889677,460.829856,366.288114,461.760000,366.840000C462.681381,367.304543,463.472016,367.992051,464.060000,368.840000C464.448115,369.459670,464.567258,370.210632,464.390000,370.920000C464.164999,371.700867,463.737154,372.408192,463.150000,372.970000C462.420237,373.705480,461.604331,374.350146,460.720000,374.890000L464.100000,376.890000L462.250000,377.950000L458.840000,375.950000C457.213106,376.753614,455.511721,377.396658,453.760000,377.870000C451.926137,378.376662,450.052844,378.727905,448.160000,378.920000L446.370000,375.720000C446.868491,375.707346,447.365909,375.667286,447.860000,375.600000C448.613091,375.514657,449.360896,375.387797,450.100000,375.220000C450.920000,375.040000,451.780000,374.820000,452.700000,374.560000C453.589852,374.290396,454.458829,373.956174,455.300000,373.560000L450,370.500000L449.310000,370.740000L448.590000,370.960000C447.260000,371.400000,446.030000,371.740000,444.920000,371.960000C443.895785,372.199241,442.851020,372.339883,441.800000,372.380000C440.875940,372.412855,439.951529,372.325456,439.050000,372.120000C438.151006,371.918046,437.287852,371.580876,436.490000,371.120000C435.615586,370.663071,434.856465,370.013373,434.270000,369.220000C433.842578,368.624838,433.630927,367.901697,433.670000,367.170000C433.755395,366.409001,434.061258,365.689528,434.550000,365.100000C435.161228,364.324707,435.890050,363.649872,436.710000,363.100000L433.570000,361.290000L435.410000,360.220000L438.520000,362.020000C439.979601,361.299881,441.511516,360.736726,443.090000,360.340000C444.595861,359.958789,446.126129,359.681470,447.670000,359.510000ZM440.210000,368.250000C440.909746,368.651590,441.716818,368.826281,442.520000,368.750000C443.599122,368.622583,444.661714,368.381237,445.690000,368.030000L440.690000,365.160000C438.880000,366.350000,438.720000,367.380000,440.210000,368.250000ZM457.700000,369.700000C456.939411,369.287951,456.065742,369.133567,455.210000,369.260000C454.030385,369.413262,452.866109,369.667529,451.730000,370.020000L456.680000,372.890000Q459.860000,370.940000,457.700000,369.700000Z" fill="rgb(249,202,6)" stroke="none" stroke-width="1"/></g><g id="efAgluwWhF891"><ellipse id="efAgluwWhF892" rx="46.310000" ry="26.740000" transform="matrix(1 0 0 1 453.69000000000000 368.12000000000000)" fill="rgb(221,153,14)" stroke="none" stroke-width="1"/><polygon id="efAgluwWhF893" points="407.390000,368.520000 407.390000,356.340000 416.540000,364.490000 407.390000,368.520000" fill="rgb(221,153,14)" stroke="none" stroke-width="1"/><polygon id="efAgluwWhF894" points="500,356.660000 500,368.120000 495.320000,373.080000 493.030000,359.960000 500,356.660000" fill="rgb(221,153,14)" stroke="none" stroke-width="1"/><ellipse id="efAgluwWhF895" rx="46.310000" ry="26.740000" transform="matrix(1 0 0 1 453.69000000000000 356.66000000000003)" fill="rgb(249,203,7)" stroke="none" stroke-width="1"/><path id="efAgluwWhF896" d="M486.780000,357.490000C486.310000,361.990000,483.110000,366.420000,477.140000,369.870000C464.190000,377.350000,443.190000,377.350000,430.250000,369.870000C424.250000,366.420000,421.070000,361.990000,420.610000,357.490000C420.050000,352.220000,423.270000,346.830000,430.250000,342.810000C443.190000,335.320000,464.190000,335.320000,477.140000,342.810000C484.110000,346.830000,487.330000,352.220000,486.780000,357.490000Z" fill="rgb(204,139,9)" stroke="none" stroke-width="1"/><path id="efAgluwWhF897" d="M486.780000,357.490000C486.310000,361.990000,483.110000,366.420000,477.140000,369.870000C464.190000,377.350000,443.190000,377.350000,430.250000,369.870000C424.250000,366.420000,421.070000,361.990000,420.610000,357.490000C421.070000,352.980000,424.280000,348.550000,430.250000,345.100000C443.190000,337.620000,464.190000,337.620000,477.140000,345.100000C483.110000,348.550000,486.310000,353,486.780000,357.490000Z" fill="rgb(232,163,10)" stroke="none" stroke-width="1"/><path id="efAgluwWhF898" d="M453.200000,351.220000C452.794563,351.219015,452.389775,351.252468,451.990000,351.320000Q451.160000,351.440000,450.160000,351.650000C449.480000,351.790000,448.780000,351.970000,448.050000,352.190000C447.347917,352.409899,446.662773,352.680614,446,353L451.320000,356.080000L452.320000,355.740000C453.670000,355.290000,454.950000,354.910000,456.150000,354.590000C457.279437,354.291558,458.434590,354.100706,459.600000,354.020000C460.661735,353.955846,461.727306,354.029798,462.770000,354.240000C463.828228,354.465210,464.841912,354.863926,465.770000,355.420000C466.696039,355.877576,467.488268,356.566471,468.070000,357.420000C468.459225,358.039253,468.578442,358.790684,468.400000,359.500000C468.172823,360.279913,467.745299,360.986707,467.160000,361.550000C466.423452,362.281978,465.604672,362.926263,464.720000,363.470000L468.110000,365.420000L466.260000,366.490000L462.850000,364.490000C461.222404,365.291997,459.521178,365.934980,457.770000,366.410000C455.933645,366.895118,454.060762,367.229562,452.170000,367.410000L450.380000,364.210000C450.878365,364.201928,451.375853,364.165200,451.870000,364.100000C452.540000,364.020000,453.280000,363.900000,454.110000,363.720000C454.940000,363.540000,455.790000,363.320000,456.710000,363.050000C457.599852,362.780396,458.468829,362.446174,459.310000,362.050000L454.010000,359.050000L453.320000,359.290000L452.600000,359.510000C451.260000,359.950000,450.040000,360.290000,448.930000,360.510000C447.905785,360.749241,446.861020,360.889883,445.810000,360.930000C444.882631,360.962932,443.954905,360.875537,443.050000,360.670000C442.156073,360.461868,441.297109,360.125019,440.500000,359.670000C439.625783,359.212781,438.866722,358.563134,438.280000,357.770000C437.852568,357.171055,437.641034,356.444790,437.680000,355.710000C437.763094,354.948398,438.069227,354.228289,438.560000,353.640000C439.174885,352.882265,439.903540,352.224451,440.720000,351.690000L437.580000,349.880000L439.420000,348.810000L442.530000,350.600000C443.989601,349.879881,445.521516,349.316726,447.100000,348.920000C448.602869,348.542853,450.129762,348.268881,451.670000,348.100000ZM444.150000,356.800000C444.848034,357.206024,445.656544,357.381026,446.460000,357.300000C447.538907,357.176724,448.601585,356.938711,449.630000,356.590000L444.630000,353.710000C442.820000,354.910000,442.660000,355.940000,444.150000,356.800000ZM461.640000,358.260000C460.876541,357.845791,459.999003,357.691344,459.140000,357.820000C457.963017,357.969543,456.801739,358.223886,455.670000,358.580000L460.620000,361.440000C462.740000,360.150000,463.070000,359.090000,461.640000,358.260000Z" fill="rgb(204,139,9)" stroke="none" stroke-width="1"/><path id="efAgluwWhF899" d="M450.340000,364.280000C450.390000,364.150000,450.340000,362.490000,450.340000,362.490000L452.340000,363.800000L451.460000,365.160000Z" fill="rgb(204,139,9)" stroke="none" stroke-width="1"/><polygon id="efAgluwWhF8100" points="468.070000,365.420000 468.070000,363.630000 463.670000,363.960000 466.200000,365.690000 468.070000,365.420000" fill="rgb(204,139,9)" stroke="none" stroke-width="1"/><polygon id="efAgluwWhF8101" points="468.440000,358.830000 468.440000,357.020000 465.150000,358.210000 468.440000,358.830000" fill="rgb(204,139,9)" stroke="none" stroke-width="1"/><path id="efAgluwWhF8102" d="M454.790000,358.730000L455.880000,357.680000L459.750000,360.360000L459.510000,361.150000C459.510000,361.150000,456.620000,359.930000,456.510000,359.860000Z" fill="rgb(204,139,9)" stroke="none" stroke-width="1"/><path id="efAgluwWhF8103" d="M444.660000,353.080000L449.800000,356L450.850000,355.240000C450.850000,355.240000,450.200000,354.500000,450.150000,354.420000C449.692405,353.892747,449.151999,353.443534,448.550000,353.090000C448.170000,353.020000,445.740000,351.920000,445.740000,351.920000Z" fill="rgb(204,139,9)" stroke="none" stroke-width="1"/><polygon id="efAgluwWhF8104" points="453.200000,351.220000 453.200000,349.430000 450.850000,348.660000 450.340000,350.070000 450.460000,350.710000 453.200000,351.220000" fill="rgb(204,139,9)" stroke="none" stroke-width="1"/><polygon id="efAgluwWhF8105" points="437.540000,349.930000 437.540000,348.130000 440.270000,348.420000 439.390000,350.160000 437.540000,349.930000" fill="rgb(204,139,9)" stroke="none" stroke-width="1"/><path id="efAgluwWhF8106" d="M437.640000,356L437.640000,354.130000L440.770000,354.130000L440.010000,355.800000L438.650000,357.300000Z" fill="rgb(204,139,9)" stroke="none" stroke-width="1"/><path id="efAgluwWhF8107" d="M453.200000,349.430000C452.794980,349.429594,452.390503,349.459679,451.990000,349.520000Q451.160000,349.640000,450.160000,349.850000C449.480000,350,448.780000,350.180000,448.050000,350.390000C447.338014,350.605378,446.642810,350.872765,445.970000,351.190000L451.290000,354.260000L452.290000,353.920000C453.640000,353.470000,454.920000,353.090000,456.120000,352.780000C457.247350,352.471918,458.403464,352.280907,459.570000,352.210000C460.631303,352.137639,461.697517,352.208272,462.740000,352.420000C463.796879,352.649677,464.809856,353.048114,465.740000,353.600000C466.663553,354.061302,467.454923,354.749450,468.040000,355.600000C468.428115,356.219670,468.547258,356.970632,468.370000,357.680000C468.144999,358.460867,467.717154,359.168192,467.130000,359.730000C466.398659,360.467840,465.579145,361.112703,464.690000,361.650000L468.080000,363.650000L466.230000,364.710000L462.820000,362.710000C461.192404,363.511997,459.491178,364.154980,457.740000,364.630000C455.906137,365.136662,454.032844,365.487905,452.140000,365.680000L450.350000,362.480000C450.848491,362.467346,451.345909,362.427286,451.840000,362.360000C452.592977,362.273847,453.340737,362.146995,454.080000,361.980000C454.900000,361.800000,455.760000,361.580000,456.680000,361.320000C457.569852,361.050396,458.438829,360.716174,459.280000,360.320000L454,357.300000L453.310000,357.540000L452.590000,357.760000C451.250000,358.200000,450.030000,358.540000,448.920000,358.760000C447.895785,358.999241,446.851020,359.139883,445.800000,359.180000C444.862811,359.242697,443.921447,359.182181,443,359C442.104730,358.796209,441.245143,358.459116,440.450000,358C439.573589,357.546030,438.813850,356.895804,438.230000,356.100000C437.814773,355.517812,437.603813,354.814612,437.630000,354.100000C437.708939,353.337320,438.015568,352.616046,438.510000,352.030000C439.121228,351.254707,439.850050,350.579872,440.670000,350.030000L437.530000,348.220000L439.370000,347.150000L442.480000,348.950000C443.939601,348.229881,445.471516,347.666726,447.050000,347.270000C448.552679,346.889697,450.079559,346.612386,451.620000,346.440000ZM444.150000,355C444.848925,355.403201,445.657574,355.574733,446.460000,355.490000C447.539720,355.371582,448.602921,355.133451,449.630000,354.780000L444.630000,351.900000C442.820000,353.110000,442.660000,354.140000,444.150000,355ZM461.640000,356.450000C460.876541,356.035791,459.999003,355.881344,459.140000,356.010000C457.963861,356.164400,456.803003,356.418652,455.670000,356.770000L460.620000,359.640000C462.740000,358.350000,463.070000,357.290000,461.640000,356.460000Z" fill="rgb(249,202,6)" stroke="none" stroke-width="1"/></g><g id="efAgluwWhF8108"><ellipse id="efAgluwWhF8109" rx="46.310000" ry="26.740000" transform="matrix(1 0 0 1 450.85000000000002 354.38999999999999)" fill="rgb(221,153,14)" stroke="none" stroke-width="1"/><polygon id="efAgluwWhF8110" points="404.550000,354.800000 404.550000,342.610000 413.700000,350.760000 404.550000,354.800000" fill="rgb(221,153,14)" stroke="none" stroke-width="1"/><polygon id="efAgluwWhF8111" points="497.160000,342.930000 497.160000,354.390000 492.480000,359.360000 490.190000,346.240000 497.160000,342.930000" fill="rgb(221,153,14)" stroke="none" stroke-width="1"/><ellipse id="efAgluwWhF8112" rx="46.310000" ry="26.740000" transform="matrix(1 0 0 1 450.85000000000002 342.93000000000001)" fill="rgb(249,203,7)" stroke="none" stroke-width="1"/><path id="efAgluwWhF8113" d="M483.940000,343.760000C483.470000,348.260000,480.270000,352.700000,474.300000,356.150000C461.350000,363.620000,440.350000,363.620000,427.400000,356.150000C421.400000,352.700000,418.230000,348.260000,417.770000,343.760000C417.210000,338.490000,420.430000,333.100000,427.400000,329.080000C440.400000,321.600000,461.400000,321.600000,474.300000,329.080000C481.270000,333.100000,484.490000,338.490000,483.940000,343.760000Z" fill="rgb(204,139,9)" stroke="none" stroke-width="1"/><path id="efAgluwWhF8114" d="M483.940000,343.760000C483.470000,348.260000,480.270000,352.700000,474.300000,356.150000C461.350000,363.620000,440.350000,363.620000,427.400000,356.150000C421.400000,352.700000,418.230000,348.260000,417.770000,343.760000C418.230000,339.260000,421.430000,334.820000,427.400000,331.370000C440.400000,323.890000,461.400000,323.890000,474.300000,331.370000C480.270000,334.820000,483.470000,339.260000,483.940000,343.760000Z" fill="rgb(232,163,10)" stroke="none" stroke-width="1"/><path id="efAgluwWhF8115" d="M450.360000,337.500000C449.954808,337.494462,449.549914,337.524578,449.150000,337.590000Q448.330000,337.710000,447.320000,337.920000C446.640000,338.060000,445.940000,338.250000,445.210000,338.460000C444.499760,338.676462,443.804862,338.940390,443.130000,339.250000L448.450000,342.330000L449.450000,341.990000C450.800000,341.540000,452.080000,341.160000,453.280000,340.850000C454.407350,340.541918,455.563464,340.350907,456.730000,340.280000C457.791303,340.207639,458.857517,340.278272,459.900000,340.490000C460.956377,340.721332,461.969097,341.119668,462.900000,341.670000C463.820887,342.131234,464.609026,342.819565,465.190000,343.670000C465.581534,344.288225,465.704303,345.039282,465.530000,345.750000C465.304999,346.530867,464.877154,347.238192,464.290000,347.800000C463.558659,348.537840,462.739145,349.182703,461.850000,349.720000L465.240000,351.670000L463.390000,352.740000L459.980000,350.740000C458.352404,351.541997,456.651178,352.184980,454.900000,352.660000C453.066137,353.166662,451.192844,353.517905,449.300000,353.710000L447.510000,350.510000C448.008491,350.497346,448.505909,350.457286,449,350.390000C449.749775,350.304575,450.494247,350.177714,451.230000,350.010000C452.060000,349.830000,452.920000,349.610000,453.840000,349.340000C454.731380,349.074866,455.600690,348.740516,456.440000,348.340000L451.140000,345.290000L450.450000,345.530000L449.730000,345.750000C448.390000,346.190000,447.170000,346.530000,446.060000,346.750000C445.035675,346.988642,443.990967,347.129276,442.940000,347.170000C442.012631,347.202932,441.084905,347.115537,440.180000,346.910000C439.284730,346.706209,438.425143,346.369116,437.630000,345.910000C436.755783,345.452781,435.996722,344.803134,435.410000,344.010000C434.994773,343.427812,434.783813,342.724612,434.810000,342.010000C434.888939,341.247320,435.195568,340.526046,435.690000,339.940000C436.297471,339.164821,437.022987,338.489922,437.840000,337.940000L434.700000,336.130000L436.550000,335.060000L439.660000,336.860000C441.115753,336.130951,442.648663,335.567431,444.230000,335.180000C445.731632,334.794894,447.258850,334.517522,448.800000,334.350000ZM441.310000,343.080000C442.010626,343.478745,442.817828,343.649970,443.620000,343.570000C444.699720,343.451582,445.762921,343.213451,446.790000,342.860000L441.790000,339.980000C440,341.180000,439.810000,342.210000,441.310000,343.080000ZM458.800000,344.530000C458.036541,344.115791,457.159003,343.961344,456.300000,344.090000C455.123861,344.244400,453.963003,344.498652,452.830000,344.850000L457.780000,347.710000Q460.950000,345.780000,458.800000,344.530000Z" fill="rgb(204,139,9)" stroke="none" stroke-width="1"/><path id="efAgluwWhF8116" d="M447.500000,350.560000C447.550000,350.430000,447.500000,348.760000,447.500000,348.760000L449.500000,350.070000L448.620000,351.430000Z" fill="rgb(204,139,9)" stroke="none" stroke-width="1"/><polygon id="efAgluwWhF8117" points="465.230000,351.690000 465.230000,349.900000 460.820000,350.240000 463.360000,351.960000 465.230000,351.690000" fill="rgb(204,139,9)" stroke="none" stroke-width="1"/><polygon id="efAgluwWhF8118" points="465.600000,345.100000 465.600000,343.290000 462.310000,344.480000 465.600000,345.100000" fill="rgb(204,139,9)" stroke="none" stroke-width="1"/><path id="efAgluwWhF8119" d="M451.940000,345L453,344L456.870000,346.670000L456.630000,347.460000C456.630000,347.460000,453.740000,346.240000,453.630000,346.170000Z" fill="rgb(204,139,9)" stroke="none" stroke-width="1"/><path id="efAgluwWhF8120" d="M441.820000,339.350000L446.950000,342.260000L448.010000,341.500000C448.010000,341.500000,447.360000,340.760000,447.310000,340.690000C446.853071,340.159311,446.312643,339.706702,445.710000,339.350000C445.330000,339.280000,442.900000,338.190000,442.900000,338.190000Z" fill="rgb(204,139,9)" stroke="none" stroke-width="1"/><polygon id="efAgluwWhF8121" points="450.360000,337.500000 450.360000,335.700000 448,334.930000 447.500000,336.340000 447.620000,336.990000 450.360000,337.500000" fill="rgb(204,139,9)" stroke="none" stroke-width="1"/><polygon id="efAgluwWhF8122" points="434.690000,336.200000 434.690000,334.400000 437.430000,334.690000 436.550000,336.440000 434.690000,336.200000" fill="rgb(204,139,9)" stroke="none" stroke-width="1"/><path id="efAgluwWhF8123" d="M434.800000,342.290000L434.800000,340.420000L437.930000,340.420000L437.170000,342.100000L435.810000,343.590000Z" fill="rgb(204,139,9)" stroke="none" stroke-width="1"/><path id="efAgluwWhF8124" d="M450.360000,335.700000C449.954563,335.699015,449.549775,335.732468,449.150000,335.800000Q448.330000,335.900000,447.320000,336.130000C446.640000,336.270000,445.940000,336.450000,445.210000,336.670000C444.498252,336.882030,443.803047,337.146075,443.130000,337.460000L448.450000,340.530000L449.450000,340.200000C450.800000,339.750000,452.080000,339.360000,453.280000,339.050000C454.409437,338.751558,455.564590,338.560706,456.730000,338.480000C457.791289,338.417670,458.856207,338.488217,459.900000,338.690000C460.956766,338.925108,461.969414,339.326792,462.900000,339.880000C463.822386,340.338998,464.611040,341.027779,465.190000,341.880000C465.580434,342.498643,465.703127,343.249236,465.530000,343.960000C465.299197,344.723868,464.871561,345.413603,464.290000,345.960000C463.558659,346.697840,462.739145,347.342703,461.850000,347.880000L465.240000,349.880000L463.380000,351L460,349C458.372404,349.801997,456.671178,350.444980,454.920000,350.920000C453.084678,351.409778,451.211406,351.744290,449.320000,351.920000L447.530000,348.720000C447.860000,348.720000,448.360000,348.720000,449.020000,348.610000C449.680000,348.500000,450.430000,348.400000,451.250000,348.220000C452.070000,348.040000,452.940000,347.820000,453.860000,347.560000C454.749852,347.290396,455.618829,346.956174,456.460000,346.560000L451.160000,343.500000C450.934334,343.591956,450.704021,343.672065,450.470000,343.740000L449.750000,343.960000C448.410000,344.400000,447.190000,344.750000,446.080000,344.960000C445.054538,345.190730,444.010258,345.327959,442.960000,345.370000C442.033067,345.406098,441.105360,345.322067,440.200000,345.120000C439.306240,344.911329,438.447353,344.574510,437.650000,344.120000C436.773589,343.666030,436.013850,343.015804,435.430000,342.220000C435.002578,341.624838,434.790927,340.901697,434.830000,340.170000C434.913094,339.408398,435.219227,338.688289,435.710000,338.100000C436.318348,337.339745,437.044144,336.681464,437.860000,336.150000L434.720000,334.330000L436.570000,333.270000L439.680000,335.060000C441.139601,334.339881,442.671516,333.776726,444.250000,333.380000C445.751821,332.997998,447.279056,332.723964,448.820000,332.560000ZM441.310000,341.280000C442.009746,341.681590,442.816818,341.856281,443.620000,341.780000C444.698907,341.656724,445.761585,341.418711,446.790000,341.070000L441.790000,338.190000C440,339.380000,439.810000,340.420000,441.310000,341.280000ZM458.800000,342.740000C458.037695,342.322354,457.160092,342.164386,456.300000,342.290000C455.122837,342.443537,453.961618,342.701214,452.830000,343.060000L457.780000,345.920000Q460.950000,344,458.800000,342.740000Z" fill="rgb(249,202,6)" stroke="none" stroke-width="1"/></g><g id="efAgluwWhF8125"><ellipse id="efAgluwWhF8126" rx="46.310000" ry="26.740000" transform="matrix(1 0 0 1 46.31000000000000 380.76999999999998)" opacity="0.3" fill="rgb(214,216,229)" stroke="none" stroke-width="1"/><ellipse id="efAgluwWhF8127" rx="46.310000" ry="26.740000" transform="matrix(1 0 0 1 50.95000000000000 377.32999999999998)" fill="rgb(221,153,14)" stroke="none" stroke-width="1"/><polygon id="efAgluwWhF8128" points="4.660000,377.740000 4.660000,365.550000 13.810000,373.700000 4.660000,377.740000" fill="rgb(221,153,14)" stroke="none" stroke-width="1"/><polygon id="efAgluwWhF8129" points="97.270000,365.870000 97.270000,377.330000 92.590000,382.300000 90.300000,369.180000 97.270000,365.870000" fill="rgb(221,153,14)" stroke="none" stroke-width="1"/><ellipse id="efAgluwWhF8130" rx="46.310000" ry="26.740000" transform="matrix(1 0 0 1 50.95000000000000 365.87000000000000)" fill="rgb(249,203,7)" stroke="none" stroke-width="1"/><path id="efAgluwWhF8131" d="M84.050000,366.700000C83.580000,371.200000,80.370000,375.640000,74.400000,379.090000C61.400000,386.560000,40.460000,386.560000,27.510000,379.090000C21.510000,375.640000,18.330000,371.200000,17.870000,366.700000C17.310000,361.430000,20.530000,356.040000,27.510000,352.020000C40.510000,344.540000,61.450000,344.540000,74.400000,352.020000C81.380000,356,84.600000,361.430000,84.050000,366.700000Z" fill="rgb(204,139,9)" stroke="none" stroke-width="1"/><path id="efAgluwWhF8132" d="M84.050000,366.700000C83.580000,371.200000,80.370000,375.640000,74.400000,379.090000C61.400000,386.560000,40.460000,386.560000,27.510000,379.090000C21.510000,375.640000,18.330000,371.200000,17.870000,366.700000C18.330000,362.200000,21.540000,357.760000,27.510000,354.310000C40.510000,346.830000,61.450000,346.830000,74.400000,354.310000C80.370000,357.760000,83.580000,362.200000,84.050000,366.700000Z" fill="rgb(232,163,10)" stroke="none" stroke-width="1"/><path id="efAgluwWhF8133" d="M50.470000,360.440000C50.061486,360.434340,49.653261,360.464455,49.250000,360.530000Q48.440000,360.650000,47.420000,360.860000C46.750000,361,46.040000,361.190000,45.310000,361.400000C44.600665,361.613654,43.908659,361.881096,43.240000,362.200000L48.560000,365.270000L49.510000,364.930000Q51.510000,364.250000,53.350000,363.790000C54.474098,363.482594,55.626827,363.291589,56.790000,363.220000C57.854622,363.147587,58.924146,363.218216,59.970000,363.430000C61.025834,363.663114,62.038280,364.061343,62.970000,364.610000C63.890887,365.071234,64.679026,365.759565,65.260000,366.610000C65.646121,367.230271,65.768521,367.979066,65.600000,368.690000C65.370848,369.471363,64.939683,370.178473,64.350000,370.740000C63.646259,371.477449,62.857397,372.128680,62,372.680000L65.390000,374.680000L63.540000,375.740000L60.120000,373.740000C58.479921,374.542615,56.765036,375.182347,55,375.650000C53.166549,376.158439,51.293104,376.509710,49.400000,376.700000L47.620000,373.500000C48.118449,373.486563,48.615825,373.446506,49.110000,373.380000C49.859775,373.294575,50.604247,373.167714,51.340000,373C52.160000,372.820000,53.030000,372.600000,53.940000,372.330000C54.830445,372.062126,55.699548,371.727855,56.540000,371.330000L51.250000,368.270000L50.560000,368.510000L49.830000,368.730000C48.500000,369.170000,47.280000,369.510000,46.170000,369.730000C45.145675,369.968642,44.100967,370.109276,43.050000,370.150000C42.122618,370.183384,41.194833,370.095984,40.290000,369.890000C39.394730,369.686209,38.535143,369.349116,37.740000,368.890000C36.865783,368.432781,36.106722,367.783134,35.520000,366.990000C35.104773,366.407812,34.893813,365.704612,34.920000,364.990000C34.994614,364.226210,35.301767,363.503701,35.800000,362.920000C36.407471,362.144821,37.132987,361.469922,37.950000,360.920000L34.810000,359.110000L36.660000,358.040000L39.770000,359.840000C41.225078,359.109391,42.758167,358.545805,44.340000,358.160000C45.842492,357.778838,47.369432,357.501517,48.910000,357.330000ZM41.470000,366.020000C42.168925,366.423201,42.977574,366.594733,43.780000,366.510000C44.859720,366.391582,45.922921,366.153451,46.950000,365.800000L41.950000,362.920000C40.090000,364.120000,39.920000,365.150000,41.420000,366ZM58.950000,367.470000C58.189411,367.057951,57.315742,366.903567,56.460000,367.030000C55.280569,367.184319,54.116383,367.438567,52.980000,367.790000L57.980000,370.650000Q61.060000,368.720000,58.900000,367.470000Z" fill="rgb(204,139,9)" stroke="none" stroke-width="1"/><path id="efAgluwWhF8134" d="M47.610000,373.500000C47.610000,373.370000,47.610000,371.700000,47.610000,371.700000L49.610000,373.010000L48.730000,374.370000Z" fill="rgb(204,139,9)" stroke="none" stroke-width="1"/><polygon id="efAgluwWhF8135" points="65.340000,374.630000 65.340000,372.840000 60.930000,373.180000 63.460000,374.900000 65.340000,374.630000" fill="rgb(204,139,9)" stroke="none" stroke-width="1"/><polygon id="efAgluwWhF8136" points="65.710000,368.040000 65.710000,366.230000 62.410000,367.420000 65.710000,368.040000" fill="rgb(204,139,9)" stroke="none" stroke-width="1"/><path id="efAgluwWhF8137" d="M52.050000,368L53.150000,366.950000L57,369.570000L56.760000,370.360000C56.760000,370.360000,53.870000,369.140000,53.760000,369.070000C53.650000,369,52.050000,368,52.050000,368Z" fill="rgb(204,139,9)" stroke="none" stroke-width="1"/><path id="efAgluwWhF8138" d="M41.930000,362.290000L47.060000,365.200000L48.060000,364.440000C48.060000,364.440000,47.420000,363.700000,47.370000,363.630000C46.908351,363.104119,46.368738,362.652193,45.770000,362.290000C45.390000,362.220000,42.950000,361.130000,42.950000,361.130000Z" fill="rgb(204,139,9)" stroke="none" stroke-width="1"/><polygon id="efAgluwWhF8139" points="50.470000,360.440000 50.470000,358.640000 48.110000,357.870000 47.610000,359.280000 47.730000,359.930000 50.470000,360.440000" fill="rgb(204,139,9)" stroke="none" stroke-width="1"/><polygon id="efAgluwWhF8140" points="34.800000,359.140000 34.800000,357.340000 37.540000,357.630000 36.650000,359.380000 34.800000,359.140000" fill="rgb(204,139,9)" stroke="none" stroke-width="1"/><path id="efAgluwWhF8141" d="M34.900000,365.230000L34.900000,363.360000L38,363.360000L37.270000,365L35.910000,366.490000Z" fill="rgb(204,139,9)" stroke="none" stroke-width="1"/><path id="efAgluwWhF8142" d="M50.470000,358.640000C50.061243,358.638929,49.653126,358.672381,49.250000,358.740000C48.710000,358.820000,48.100000,358.920000,47.420000,359.070000C46.740000,359.220000,46.040000,359.390000,45.310000,359.610000C44.600924,359.820339,43.908918,360.084438,43.240000,360.400000L48.560000,363.470000L49.510000,363.140000C50.870000,362.690000,52.150000,362.300000,53.350000,361.990000C54.476226,361.692411,55.627980,361.501568,56.790000,361.420000C57.854608,361.357670,58.922834,361.428214,59.970000,361.630000C61.026270,361.866719,62.038671,362.268305,62.970000,362.820000C63.892386,363.278998,64.681040,363.967779,65.260000,364.820000C65.646121,365.440271,65.768521,366.189066,65.600000,366.900000C65.386099,367.695530,64.965135,368.420139,64.380000,369C63.661182,369.715632,62.862627,370.346424,62,370.880000L65.390000,372.880000L63.540000,373.950000L60.120000,371.950000C58.479548,372.749184,56.764674,373.385563,55,373.850000C53.165073,374.341552,51.291649,374.676092,49.400000,374.850000L47.620000,371.650000C47.940000,371.650000,48.440000,371.650000,49.110000,371.540000C49.780000,371.430000,50.520000,371.330000,51.340000,371.150000C52.160000,370.970000,53.030000,370.760000,53.940000,370.490000C54.830420,370.222055,55.699519,369.887786,56.540000,369.490000L51.250000,366.430000Q50.900000,366.570000,50.560000,366.670000L49.830000,366.900000C48.500000,367.330000,47.280000,367.680000,46.170000,367.900000C45.145405,368.135574,44.100672,368.272862,43.050000,368.310000C42.123055,368.346549,41.195290,368.262513,40.290000,368.060000C39.397458,367.847430,38.539110,367.510823,37.740000,367.060000C36.864937,366.599622,36.105849,365.946533,35.520000,365.150000C35.092578,364.554838,34.880927,363.831697,34.920000,363.100000C34.998332,362.337163,35.305034,361.615717,35.800000,361.030000C36.408348,360.269745,37.134144,359.611464,37.950000,359.080000L34.810000,357.260000L36.660000,356.200000L39.770000,357.990000C41.228787,357.267987,42.760909,356.704757,44.340000,356.310000C45.842677,355.931960,47.369631,355.657977,48.910000,355.490000ZM41.470000,364.220000C42.169746,364.621590,42.976818,364.796281,43.780000,364.720000C44.842359,364.590004,45.888107,364.348678,46.900000,364L41.900000,361.120000C40.090000,362.330000,39.920000,363.360000,41.420000,364.220000ZM58.950000,365.680000C58.190560,365.264513,57.316827,365.106610,56.460000,365.230000C55.280393,365.388248,54.116256,365.645830,52.980000,366L57.980000,368.860000Q61.060000,366.920000,58.900000,365.680000Z" fill="rgb(249,202,6)" stroke="none" stroke-width="1"/></g><path id="efAgluwWhF8143" d="M125.170000,301.280000L123.710000,299.540000C94.470000,264.750000,91.920000,233.230000,115.910000,203.180000C136.340000,177.600000,172.400000,157.560000,204.220000,139.880000C210.930000,136.150000,217.220000,132.630000,223.280000,129.160000L230.100000,125.160000L236.930000,129.160000C273.820000,150.450000,312.530000,160.540000,358.770000,160.920000L368.160000,160.990000L368.290000,166.410000C368.940000,193.110000,386.420000,215.470000,423.290000,236.760000L430.120000,240.700000L423.290000,244.640000C417.290000,248.120000,411.180000,251.780000,404.720000,255.640000C374.100000,274.020000,339.380000,294.840000,295.080000,306.640000C243.030000,320.490000,188.430000,319.020000,128.160000,302.140000ZM230.170000,140.890000C226.110000,143.180000,221.930000,145.500000,217.600000,147.890000C154.270000,183.090000,82.600000,222.940000,139.600000,292.890000C260.800000,325.890000,329.840000,284.440000,390.800000,247.890000C395,245.410000,399,243,403,240.660000C369.180000,219.770000,351.950000,197.660000,349.340000,171.870000C304.620000,170.370000,266.360000,160.420000,230.180000,140.890000Z" opacity="0.4" fill="rgb(214,216,229)" stroke="none" stroke-width="1"/><path id="efAgluwWhF8144" d="M136.350000,294.570000L134.890000,292.840000C105.650000,258.040000,103.100000,226.520000,127.090000,196.470000C147.520000,170.890000,183.590000,150.850000,215.400000,133.170000C222.110000,129.440000,228.400000,125.920000,234.460000,122.450000L241.290000,118.510000L248.110000,122.450000C285,143.740000,323.710000,153.830000,370,154.210000L379.390000,154.280000L379.520000,159.700000C380.170000,186.400000,397.650000,208.760000,434.520000,230.050000L441.350000,233.990000L434.520000,237.940000C428.520000,241.410000,422.410000,245.070000,415.960000,248.940000C385.330000,267.310000,350.620000,288.130000,306.310000,299.940000C254.310000,313.800000,199.660000,312.320000,139.390000,295.440000ZM241.350000,134.180000C237.290000,136.470000,233.110000,138.790000,228.790000,141.180000C165.450000,176.380000,93.790000,216.230000,150.790000,286.180000C271.980000,319.180000,341.020000,277.730000,401.980000,241.180000C406.150000,238.690000,410.170000,236.270000,414.130000,233.930000C380.320000,213.040000,363.080000,190.930000,360.470000,165.140000C315.800000,163.660000,277.540000,153.710000,241.360000,134.180000Z" fill="rgb(0,175,146)" stroke="none" stroke-width="1"/><polygon id="efAgluwWhF8145" points="136.350000,294.570000 136.350000,278.920000 354.790000,215.700000 440.880000,217.940000 441.320000,233.990000 327.950000,285.820000 257.230000,303.530000 159.400000,295.780000 136.350000,294.570000" fill="rgb(0,175,146)" stroke="none" stroke-width="1"/><polygon id="efAgluwWhF8146" points="110.840000,237.790000 110.840000,223.090000 118.680000,233.870000 110.840000,237.790000" fill="rgb(125,144,226)" stroke="none" stroke-width="1"/><path id="efAgluwWhF8147" d="M427.660000,218.340000C389.060000,196.050000,370.510000,172.610000,369.820000,144.130000C320.490000,143.730000,279.890000,133.020000,241.290000,110.740000C177.960000,147.300000,74.130000,192.110000,143.580000,274.740000C286.720000,314.850000,364.330000,254.900000,427.660000,218.340000Z" fill="rgb(0,175,146)" stroke="none" stroke-width="1"/><path id="efAgluwWhF8148" d="M136.350000,278.920000L134.890000,277.180000C105.650000,242.390000,103.100000,210.870000,127.090000,180.820000C147.520000,155.240000,183.590000,135.200000,215.400000,117.510000C222.110000,113.790000,228.400000,110.270000,234.460000,106.790000L241.290000,102.850000L248.110000,106.790000C285,128.090000,323.710000,138.180000,369.950000,138.550000L379.340000,138.630000L379.470000,144.050000C380.120000,170.750000,397.600000,193.050000,434.470000,214.400000L441.300000,218.340000L434.470000,222.280000C428.470000,225.760000,422.360000,229.410000,415.910000,233.280000C385.280000,251.650000,350.570000,272.480000,306.260000,284.280000C254.260000,298.130000,199.610000,296.660000,139.340000,279.770000ZM241.350000,118.530000C237.290000,120.820000,233.110000,123.140000,228.790000,125.530000C165.450000,160.720000,93.790000,200.580000,150.790000,270.530000C271.980000,303.480000,341.020000,262.080000,401.980000,225.530000C406.150000,223.030000,410.170000,220.620000,414.130000,218.280000C380.320000,197.390000,363.080000,175.280000,360.470000,149.490000C315.800000,148,277.540000,138.050000,241.360000,118.530000Z" fill="rgb(14,117,100)" stroke="none" stroke-width="1"/><ellipse id="efAgluwWhF8149" rx="40.580000" ry="23.430000" transform="matrix(1 0 0 1 264.89999999999998 203.40000000000001)" opacity="0.1" fill="rgb(0,0,0)" stroke="none" stroke-width="1"/><path id="efAgluwWhF8150" d="M294.200000,144L252.250000,119.780000C249.140000,117.980000,246.620000,113.170000,246.620000,109.030000L246.620000,80.530000C246.620000,76.390000,249.140000,74.530000,252.250000,76.280000L294.200000,100.500000C297.310000,102.300000,299.830000,107.110000,299.830000,111.250000L299.830000,139.750000C299.830000,143.890000,297.310000,145.790000,294.200000,144Z" fill="rgb(232,163,10)" stroke="none" stroke-width="1"/><polygon id="efAgluwWhF8151" points="279.370000,155.360000 298.110000,144.150000 286.750000,118.380000 269.110000,127.100000 279.370000,155.360000" fill="rgb(232,163,10)" stroke="none" stroke-width="1"/><polygon id="efAgluwWhF8152" points="230.490000,86.830000 248.980000,75.800000 253.610000,110.140000 230.490000,86.830000" fill="rgb(232,163,10)" stroke="none" stroke-width="1"/><path id="efAgluwWhF8153" d="M275.820000,155L233.820000,130.780000C230.710000,128.990000,228.200000,124.180000,228.200000,120.040000L228.200000,91.520000C228.200000,87.380000,230.710000,85.520000,233.820000,87.270000L275.820000,111.500000C278.920000,113.290000,281.440000,118.100000,281.440000,122.240000L281.440000,150.740000C281.440000,154.880000,278.920000,156.790000,275.820000,155Z" fill="rgb(249,203,7)" stroke="none" stroke-width="1"/><path id="efAgluwWhF8154" d="M251.120000,86.440000L251.120000,64.790000C251.120000,56,257.290000,52.440000,264.900000,56.790000L264.900000,56.790000C272.510000,61.180000,278.680000,71.870000,278.680000,80.650000L278.680000,102.300000" fill="none" stroke="rgb(204,139,9)" stroke-width="10.460000" stroke-miterlimit="10"/><ellipse id="efAgluwWhF8155" rx="6.110000" ry="3.530000" transform="matrix(1 0 0 1 250.93000000000001 86.59000000000000)" fill="rgb(204,139,9)" stroke="none" stroke-width="1"/><ellipse id="efAgluwWhF8156" rx="6.110000" ry="3.530000" transform="matrix(1 0 0 1 278.68000000000001 101.33000000000000)" fill="rgb(204,139,9)" stroke="none" stroke-width="1"/></g></g></svg>